<svg xmlns="http://www.w3.org/2000/svg" width="1600" height="1000" viewBox="0 0 1600 1000">
  <defs>
    <linearGradient id="g" x1="0" y1="0" x2="1" y2="1">
      <stop offset="0" stop-color="#006a82"/>
      <stop offset="0.58" stop-color="#00d8f0"/>
      <stop offset="1" stop-color="#e8a415"/>
    </linearGradient>
    <radialGradient id="sun" cx="72%" cy="28%" r="35%">
      <stop offset="0" stop-color="#fff7d6" stop-opacity="0.88"/>
      <stop offset="1" stop-color="#fff7d6" stop-opacity="0"/>
    </radialGradient>
    <filter id="shadow" x="-20%" y="-20%" width="140%" height="140%">
      <feDropShadow dx="0" dy="18" stdDeviation="22" flood-color="#051419" flood-opacity="0.28"/>
    </filter>
  </defs>
  <rect width="1600" height="1000" fill="url(#g)"/>
  <rect width="1600" height="1000" fill="url(#sun)"/>
  <circle cx="1120" cy="235" r="128" fill="#ffffff" opacity="0.16"/>
  <path d="M0 716 C260 631 430 801 690 716 C950 631 1120 801 1600 671 L1600 1000 L0 1000 Z" fill="#051419" opacity="0.52"/>
  <path d="M0 776 C300 706 470 856 760 776 C1020 706 1230 856 1600 741" fill="none" stroke="#ffffff" stroke-width="10" opacity="0.28"/>
  <g transform="translate(242 150)" fill="none" stroke="#ffffff" stroke-linecap="round" opacity="0.82" filter="url(#shadow)">
    <path d="M140 560 L190 240" stroke-width="32"/>
    <path d="M190 250 C100 255 35 310 0 390" stroke-width="24"/>
    <path d="M198 240 C290 245 360 300 402 385" stroke-width="24"/>
    <path d="M190 238 C150 150 110 95 45 62" stroke-width="24"/>
    <path d="M198 235 C245 150 295 95 372 62" stroke-width="24"/>
  </g>
  <rect x="1040" y="642" width="350" height="104" rx="52" fill="#051419" opacity="0.42"/>
  <circle cx="1135" cy="694" r="35" fill="#ffffff" opacity="0.75"/>
  <circle cx="1220" cy="694" r="35" fill="#ffffff" opacity="0.50"/>
  <circle cx="1305" cy="694" r="35" fill="#ffffff" opacity="0.35"/>
  <text x="120" y="150" fill="#ffffff" font-family="Arial, sans-serif" font-size="28" font-weight="800" letter-spacing="10" opacity="0.82">VILLAGE GUIDE 15</text>
  <text x="120" y="815" fill="#ffffff" font-family="Georgia, serif" font-size="86" font-weight="700">Village Socialite</text>
  <text x="126" y="885" fill="#ffffff" font-family="Arial, sans-serif" font-size="30" font-weight="800" letter-spacing="9">LOCAL FINDS</text>
</svg>